<?xml version="1.0" encoding="UTF-8"?>
<svg width="1440px" height="266px" viewBox="0 0 1440 266" version="1.1" xmlns="http://www.w3.org/2000/svg" xmlns:xlink="http://www.w3.org/1999/xlink">
    <!-- Generator: Sketch 42 (36781) - http://www.bohemiancoding.com/sketch -->
    <title>hero-shapes</title>
    <desc>Created with Sketch.</desc>
    <defs></defs>
    <g id="Page-1" stroke="none" stroke-width="1" fill="none" fill-rule="evenodd">
        <g id="Website-Home" transform="translate(0.000000, -414.000000)">
            <g id="//-HERO-//">
                <g id="Mountains">
                    <g id="hero-shapes" transform="translate(-209.000000, 363.000000)">
                        <g id="2nd-Layer-Color" transform="translate(0.611962, 60.008863)">
                            <polygon id="Polygon-1-Copy" fill-opacity="0.3" fill="#E94940" style="mix-blend-mode: multiply;" points="353 93.1246 497.99363 128.86232 609.770966 227.888399 662.725169 367.517156 644.725068 515.761325 559.894269 638.659953 427.666487 708.058447 278.333513 708.058447 146.105731 638.659953 61.2749323 515.761325 43.2748313 367.517156 96.2290338 227.888399 208.00637 128.86232"></polygon>
                            <polygon id="Polygon-1" fill-opacity="0.2" fill="#72C7D6" style="mix-blend-mode: multiply;" points="486.588 60.9456 631.58163 96.68332 743.358966 195.709399 796.313169 335.338156 778.313068 483.582325 693.482269 606.480953 561.254487 675.879447 411.921513 675.879447 279.693731 606.480953 194.862932 483.582325 176.862831 335.338156 229.817034 195.709399 341.59437 96.68332"></polygon>
                            <polygon id="Polygon-1" fill-opacity="0.3" fill="#83B0FF" style="mix-blend-mode: multiply;" points="312.279 0 447.650727 30.8977132 556.210423 117.471182 616.456509 242.573469 616.456509 381.426531 556.210423 506.528818 447.650727 593.102287 312.279 624 176.907273 593.102287 68.3475775 506.528818 8.1014914 381.426531 8.1014914 242.573469 68.3475775 117.471182 176.907273 30.8977132"></polygon>
                        </g>
                        <g id="2nd-Layer-Color" transform="translate(569.500000, 155.508862)">
                            <polygon id="Polygon-1-Copy" fill-opacity="0.3" fill="#E94940" style="mix-blend-mode: multiply;" points="312 24.1246 456.99363 59.86232 568.770966 158.888399 621.725169 298.517156 603.725068 446.761325 518.894269 569.659953 386.666487 639.058447 237.333513 639.058447 105.105731 569.659953 20.2749323 446.761325 2.27483128 298.517156 55.2290338 158.888399 167.00637 59.86232"></polygon>
                            <polygon id="Polygon-1" fill-opacity="0.2" fill="#72C7D6" style="mix-blend-mode: multiply;" points="391.588 43.9456 536.58163 79.68332 648.358966 178.709399 701.313169 318.338156 683.313068 466.582325 598.482269 589.480953 466.254487 658.879447 316.921513 658.879447 184.693731 589.480953 99.8629323 466.582325 81.8628313 318.338156 134.817034 178.709399 246.59437 79.68332"></polygon>
                            <polygon id="Polygon-1" fill-opacity="0.3" fill="#83B0FF" style="mix-blend-mode: multiply;" points="374.279 0 509.650727 30.8977132 618.210423 117.471182 678.456509 242.573469 678.456509 381.426531 618.210423 506.528818 509.650727 593.102287 374.279 624 238.907273 593.102287 130.347577 506.528818 70.1014914 381.426531 70.1014914 242.573469 130.347577 117.471182 238.907273 30.8977132"></polygon>
                        </g>
                        <g id="2nd-Layer-Color" transform="translate(1124.666650, 0.540112)">
                            <polygon id="Polygon-1-Copy" fill-opacity="0.3" fill="#E94940" style="mix-blend-mode: multiply;" points="312 109.1246 456.99363 144.86232 568.770966 243.888399 621.725169 383.517156 603.725068 531.761325 518.894269 654.659953 386.666487 724.058447 237.333513 724.058447 105.105731 654.659953 20.2749323 531.761325 2.27483128 383.517156 55.2290338 243.888399 167.00637 144.86232"></polygon>
                            <polygon id="Polygon-1" fill-opacity="0.2" fill="#72C7D6" style="mix-blend-mode: multiply;" points="378.588 50.9456 523.58163 86.68332 635.358966 185.709399 688.313169 325.338156 670.313068 473.582325 585.482269 596.480953 453.254487 665.879447 303.921513 665.879447 171.693731 596.480953 86.8629323 473.582325 68.8628313 325.338156 121.817034 185.709399 233.59437 86.68332"></polygon>
                            <polygon id="Polygon-1" fill-opacity="0.3" fill="#83B0FF" style="mix-blend-mode: multiply;" transform="translate(430.279000, 362.000000) rotate(-10.000000) translate(-430.279000, -362.000000) " points="430.279 50 565.650727 80.8977132 674.210423 167.471182 734.456509 292.573469 734.456509 431.426531 674.210423 556.528818 565.650727 643.102287 430.279 674 294.907273 643.102287 186.347577 556.528818 126.101491 431.426531 126.101491 292.573469 186.347577 167.471182 294.907273 80.8977132"></polygon>
                        </g>
                    </g>
                </g>
            </g>
        </g>
    </g>
</svg>