<?xml version="1.0" encoding="UTF-8"?>
<svg width="48px" height="70px" viewBox="0 0 48 70" version="1.1" xmlns="http://www.w3.org/2000/svg" xmlns:xlink="http://www.w3.org/1999/xlink">
    <!-- Generator: Sketch 46.2 (44496) - http://www.bohemiancoding.com/sketch -->
    <title>US</title>
    <desc>Created with Sketch.</desc>
    <defs>
        <rect id="path-1" x="3" y="0" width="42" height="42" rx="21"></rect>
        <linearGradient x1="50%" y1="0%" x2="50%" y2="100%" id="linearGradient-3">
            <stop stop-color="#FFFFFF" offset="0%"></stop>
            <stop stop-color="#F0F0F0" offset="100%"></stop>
        </linearGradient>
        <path d="M4,5.33333333 C3.26362033,5.33333333 2.66666667,4.73637967 2.66666667,4 C2.66666667,3.26362033 3.26362033,2.66666667 4,2.66666667 C4.73637967,2.66666667 5.33333333,3.26362033 5.33333333,4 C5.33333333,4.73637967 4.73637967,5.33333333 4,5.33333333 Z M9.33333333,5.33333333 C8.59695367,5.33333333 8,4.73637967 8,4 C8,3.26362033 8.59695367,2.66666667 9.33333333,2.66666667 C10.069713,2.66666667 10.6666667,3.26362033 10.6666667,4 C10.6666667,4.73637967 10.069713,5.33333333 9.33333333,5.33333333 Z M14.6666667,5.33333333 C13.930287,5.33333333 13.3333333,4.73637967 13.3333333,4 C13.3333333,3.26362033 13.930287,2.66666667 14.6666667,2.66666667 C15.4030463,2.66666667 16,3.26362033 16,4 C16,4.73637967 15.4030463,5.33333333 14.6666667,5.33333333 Z M20,5.33333333 C19.2636203,5.33333333 18.6666667,4.73637967 18.6666667,4 C18.6666667,3.26362033 19.2636203,2.66666667 20,2.66666667 C20.7363797,2.66666667 21.3333333,3.26362033 21.3333333,4 C21.3333333,4.73637967 20.7363797,5.33333333 20,5.33333333 Z M6.66666667,8 C5.930287,8 5.33333333,7.40304633 5.33333333,6.66666667 C5.33333333,5.930287 5.930287,5.33333333 6.66666667,5.33333333 C7.40304633,5.33333333 8,5.930287 8,6.66666667 C8,7.40304633 7.40304633,8 6.66666667,8 Z M12,8 C11.2636203,8 10.6666667,7.40304633 10.6666667,6.66666667 C10.6666667,5.930287 11.2636203,5.33333333 12,5.33333333 C12.7363797,5.33333333 13.3333333,5.930287 13.3333333,6.66666667 C13.3333333,7.40304633 12.7363797,8 12,8 Z M17.3333333,8 C16.5969537,8 16,7.40304633 16,6.66666667 C16,5.930287 16.5969537,5.33333333 17.3333333,5.33333333 C18.069713,5.33333333 18.6666667,5.930287 18.6666667,6.66666667 C18.6666667,7.40304633 18.069713,8 17.3333333,8 Z M20,10.6666667 C19.2636203,10.6666667 18.6666667,10.069713 18.6666667,9.33333333 C18.6666667,8.59695367 19.2636203,8 20,8 C20.7363797,8 21.3333333,8.59695367 21.3333333,9.33333333 C21.3333333,10.069713 20.7363797,10.6666667 20,10.6666667 Z M14.6666667,10.6666667 C13.930287,10.6666667 13.3333333,10.069713 13.3333333,9.33333333 C13.3333333,8.59695367 13.930287,8 14.6666667,8 C15.4030463,8 16,8.59695367 16,9.33333333 C16,10.069713 15.4030463,10.6666667 14.6666667,10.6666667 Z M9.33333333,10.6666667 C8.59695367,10.6666667 8,10.069713 8,9.33333333 C8,8.59695367 8.59695367,8 9.33333333,8 C10.069713,8 10.6666667,8.59695367 10.6666667,9.33333333 C10.6666667,10.069713 10.069713,10.6666667 9.33333333,10.6666667 Z M4,10.6666667 C3.26362033,10.6666667 2.66666667,10.069713 2.66666667,9.33333333 C2.66666667,8.59695367 3.26362033,8 4,8 C4.73637967,8 5.33333333,8.59695367 5.33333333,9.33333333 C5.33333333,10.069713 4.73637967,10.6666667 4,10.6666667 Z M6.66666667,13.3333333 C5.930287,13.3333333 5.33333333,12.7363797 5.33333333,12 C5.33333333,11.2636203 5.930287,10.6666667 6.66666667,10.6666667 C7.40304633,10.6666667 8,11.2636203 8,12 C8,12.7363797 7.40304633,13.3333333 6.66666667,13.3333333 Z M12,13.3333333 C11.2636203,13.3333333 10.6666667,12.7363797 10.6666667,12 C10.6666667,11.2636203 11.2636203,10.6666667 12,10.6666667 C12.7363797,10.6666667 13.3333333,11.2636203 13.3333333,12 C13.3333333,12.7363797 12.7363797,13.3333333 12,13.3333333 Z M17.3333333,13.3333333 C16.5969537,13.3333333 16,12.7363797 16,12 C16,11.2636203 16.5969537,10.6666667 17.3333333,10.6666667 C18.069713,10.6666667 18.6666667,11.2636203 18.6666667,12 C18.6666667,12.7363797 18.069713,13.3333333 17.3333333,13.3333333 Z M20,16 C19.2636203,16 18.6666667,15.4030463 18.6666667,14.6666667 C18.6666667,13.930287 19.2636203,13.3333333 20,13.3333333 C20.7363797,13.3333333 21.3333333,13.930287 21.3333333,14.6666667 C21.3333333,15.4030463 20.7363797,16 20,16 Z M14.6666667,16 C13.930287,16 13.3333333,15.4030463 13.3333333,14.6666667 C13.3333333,13.930287 13.930287,13.3333333 14.6666667,13.3333333 C15.4030463,13.3333333 16,13.930287 16,14.6666667 C16,15.4030463 15.4030463,16 14.6666667,16 Z M9.33333333,16 C8.59695367,16 8,15.4030463 8,14.6666667 C8,13.930287 8.59695367,13.3333333 9.33333333,13.3333333 C10.069713,13.3333333 10.6666667,13.930287 10.6666667,14.6666667 C10.6666667,15.4030463 10.069713,16 9.33333333,16 Z M4,16 C3.26362033,16 2.66666667,15.4030463 2.66666667,14.6666667 C2.66666667,13.930287 3.26362033,13.3333333 4,13.3333333 C4.73637967,13.3333333 5.33333333,13.930287 5.33333333,14.6666667 C5.33333333,15.4030463 4.73637967,16 4,16 Z" id="path-4"></path>
        <filter x="-5.4%" y="-7.5%" width="110.7%" height="130.0%" filterUnits="objectBoundingBox" id="filter-5">
            <feOffset dx="0" dy="2" in="SourceAlpha" result="shadowOffsetOuter1"></feOffset>
            <feColorMatrix values="0 0 0 0 0   0 0 0 0 0   0 0 0 0 0  0 0 0 0.06 0" type="matrix" in="shadowOffsetOuter1"></feColorMatrix>
        </filter>
    </defs>
    <g id="Current" stroke="none" stroke-width="1" fill="none" fill-rule="evenodd">
        <g id="Website-Home" transform="translate(-334.000000, -3807.000000)">
            <g id="Group-13" transform="translate(264.000000, 3807.000000)">
                <g id="US" transform="translate(70.000000, 0.000000)">
                    <mask id="mask-2" fill="white">
                        <use xlink:href="#path-1"></use>
                    </mask>
                    <use id="Mask" fill="#FFFFFF" xlink:href="#path-1"></use>
                    <g id="Group-11" mask="url(#mask-2)">
                        <g transform="translate(3.000000, 0.000000)">
                            <path d="M0,0 L56,0 L56,2.66666667 L0,2.66666667 L0,0 Z M0,5.33333333 L56,5.33333333 L56,8 L0,8 L0,5.33333333 Z M0,10.6666667 L56,10.6666667 L56,13.3333333 L0,13.3333333 L0,10.6666667 Z M0,16 L56,16 L56,18.6666667 L0,18.6666667 L0,16 Z M0,21.3333333 L56,21.3333333 L56,24 L0,24 L0,21.3333333 Z M0,26.6666667 L56,26.6666667 L56,29.3333333 L0,29.3333333 L0,26.6666667 Z M0,32 L56,32 L56,34.6666667 L0,34.6666667 L0,32 Z M0,37.3333333 L56,37.3333333 L56,40 L0,40 L0,37.3333333 Z" id="Rectangle-511" fill="#D02F44" fill-rule="evenodd"></path>
                            <rect id="Rectangle-511" fill="#46467F" fill-rule="evenodd" x="0" y="0" width="24" height="18.6666667"></rect>
                            <g id="Oval-43" fill="none">
                                <use fill="black" fill-opacity="1" filter="url(#filter-5)" xlink:href="#path-4"></use>
                                <use fill="url(#linearGradient-3)" fill-rule="evenodd" xlink:href="#path-4"></use>
                            </g>
                        </g>
                    </g>
                    <rect id="Rectangle-13" fill="#BEC3CC" x="0" y="66" width="48" height="4"></rect>
                </g>
            </g>
        </g>
    </g>
</svg>