<?xml version="1.0" encoding="UTF-8"?>
<svg width="69px" height="82px" viewBox="0 0 69 82" version="1.1" xmlns="http://www.w3.org/2000/svg" xmlns:xlink="http://www.w3.org/1999/xlink">
    <!-- Generator: Sketch 44.1 (41455) - http://www.bohemiancoding.com/sketch -->
    <title>Blog</title>
    <desc>Created with Sketch.</desc>
    <defs></defs>
    <g id="Page-1" stroke="none" stroke-width="1" fill="none" fill-rule="evenodd">
        <g id="Website-–-About" transform="translate(-298.000000, -2835.000000)">
            <g id="//-AROUND-//" transform="translate(250.000000, 2403.000000)">
                <g id="Blog" transform="translate(48.250000, 432.000000)">
                    <rect id="Rectangle-17" stroke="#EB5B53" stroke-width="2" x="1" y="1" width="66" height="80" rx="3"></rect>
                    <g id="Group-8" transform="translate(10.000000, 10.416000)" fill="#EB5B53">
                        <rect id="Rectangle-18" x="23.5104003" y="17.0730746" width="24" height="2" rx="1"></rect>
                        <rect id="Rectangle-18" x="1.51040027" y="26.4474747" width="46" height="2" rx="1"></rect>
                        <rect id="Rectangle-18" x="1.51040027" y="35.1274748" width="46" height="2" rx="1"></rect>
                        <rect id="Rectangle-18" x="1.51040027" y="43.8074749" width="46" height="2" rx="1"></rect>
                        <rect id="Rectangle-18" x="23.5104003" y="8.74027447" width="24" height="2" rx="1"></rect>
                        <rect id="Rectangle-18" x="23.5104003" y="0.407474369" width="24" height="2" rx="1"></rect>
                        <rect id="Rectangle-18" x="1.51040027" y="52.487475" width="28" height="2" rx="1"></rect>
                        <path d="M7.78834363,17.5669551 C8.47835215,17.5669551 8.82335124,16.9561924 8.82335124,15.7346486 L8.82335124,5.30084476 C8.82335124,3.98078934 7.32614667,3.32077153 6.33172262,3.32077153 C5.33729857,3.32077153 3.88880025,3.65570594 3.88880025,4.32558481 C3.88880025,4.52260801 3.92431486,5.7466055 3.99534515,6.15050305 C4.06637544,6.55440061 4.10189005,6.85485648 4.10189005,7.05187967 C4.10189005,8.80538613 1.55039538,9.46047844 1.14450801,9.01717624 C0.738620643,8.57387405 0.535680004,7.97788782 0.535680004,7.22919967 C0.535680004,6.97306951 0.576268132,6.51007194 0.657445605,5.84019307 C0.71832871,5.32793276 0.748769806,4.85508417 0.748769806,4.42163314 C0.748769806,4.1852053 0.71832871,3.70250571 0.657445605,2.97351988 C0.616856869,2.48096189 0.596562805,2.0869214 0.596562805,1.79138661 C0.596562805,0.924484536 1.04303221,0.491040004 1.93598442,0.491040004 C2.40275489,0.491040004 2.99128274,0.52059304 3.70158564,0.579699999 C5.3251351,0.717616238 7.59807026,0.786573322 10.5204593,0.786573322 C13.4631427,0.786573322 15.7462249,0.717616238 17.3697744,0.579699999 C18.0800773,0.52059304 18.6584581,0.491040004 19.1049342,0.491040004 C20.0181808,0.491040004 20.4747972,0.924484536 20.4747972,1.79138661 C20.4747972,2.0869214 20.4494296,2.52529144 20.3986937,3.10650987 C20.3479578,3.6877283 20.3225902,4.12609834 20.3225902,4.42163314 C20.3225902,4.73687026 20.3530313,5.20971884 20.4139144,5.84019307 C20.4950919,6.6676905 20.53568,7.14053908 20.53568,7.258753 C20.53568,8.00744115 20.3276658,8.59850187 19.9116313,9.03195291 C19.4955967,9.46540394 16.96947,8.83493917 16.96947,7.14053967 C16.96947,6.90411183 16.9999111,6.58887945 17.0607942,6.19483305 C17.1216773,5.80078666 17.1521184,4.58171467 17.1521184,4.38469147 C17.1521184,3.67540796 16.705649,3.32077153 15.8126967,3.32077153 C15.2241601,3.32077153 12.856838,3.46853671 12.6133056,3.76407151 C12.3697732,4.0596063 12.2480088,5.49540055 12.2480088,6.22438638 L12.2480088,15.7346486 C12.2480088,16.9561924 12.5930079,17.5669551 13.2830164,17.5669551 C13.5062544,17.5669551 14.7873267,17.5324766 15.2236557,17.4635185 C15.6599846,17.3945604 15.9897631,17.3600818 16.2130012,17.3600818 C17.4306633,17.3600818 18.0394852,17.9511425 18.0394852,19.1332817 C18.0394852,20.689765 17.2784578,20.4690923 15.7563802,20.4690923 C15.1678435,20.4690923 14.4676983,20.4296883 13.6559235,20.350879 C12.4382614,20.2326651 11.3931171,20.173559 10.5204593,20.173559 C9.6275071,20.173559 8.5823628,20.2326651 7.38499507,20.350879 C6.59351471,20.4296883 5.8933695,20.4690923 5.28453845,20.4690923 C3.76246083,20.4690923 3.00143343,20.7488711 3.00143343,19.3106017 C3.00143343,18.0102486 3.62040238,17.3600818 4.85835885,17.3600818 C5.0815969,17.3600818 5.41137544,17.3945604 5.84770436,17.4635185 C6.28403328,17.5324766 7.56510557,17.5669551 7.78834363,17.5669551 Z" id="T"></path>
                    </g>
                </g>
            </g>
        </g>
    </g>
</svg>