<?xml version="1.0" encoding="UTF-8"?>
<svg width="48px" height="70px" viewBox="0 0 48 70" version="1.1" xmlns="http://www.w3.org/2000/svg" xmlns:xlink="http://www.w3.org/1999/xlink">
    <!-- Generator: Sketch 46.2 (44496) - http://www.bohemiancoding.com/sketch -->
    <title>CA</title>
    <desc>Created with Sketch.</desc>
    <defs>
        <rect id="path-1" x="3" y="0" width="42" height="42" rx="21"></rect>
    </defs>
    <g id="Current" stroke="none" stroke-width="1" fill="none" fill-rule="evenodd">
        <g id="Website-Home" transform="translate(-592.000000, -3807.000000)">
            <g id="Group-13" transform="translate(264.000000, 3807.000000)">
                <g id="CA" transform="translate(328.000000, 0.000000)">
                    <mask id="mask-2" fill="white">
                        <use xlink:href="#path-1"></use>
                    </mask>
                    <g id="Mask">
                        <use fill="#FFFFFF" fill-rule="evenodd" xlink:href="#path-1"></use>
                        <rect stroke="#F5F5F5" stroke-width="1" x="3.5" y="0.5" width="41" height="41" rx="20.5"></rect>
                    </g>
                    <g id="Group-12" mask="url(#mask-2)" fill="#FF3131">
                        <g transform="translate(-4.000000, 0.000000)">
                            <rect id="Mask" x="40" y="0" width="16" height="40"></rect>
                            <rect id="Rectangle-2" x="0" y="0" width="16" height="40"></rect>
                            <path d="M31.0364668,18.1509993 L32,13.3333333 L29.3333333,14.6666667 L28,10.6666667 L26.6666667,14.6666667 L24,13.3333333 L24.9635332,18.1509993 L24.9635332,18.1509993 C25.0253706,18.4601862 24.8248542,18.7609608 24.5156673,18.8227982 C24.3284856,18.8602345 24.1349787,18.8016453 24,18.6666667 L23.1380712,17.8047379 L23.1380712,17.8047379 C22.8777217,17.5443883 22.4556117,17.5443883 22.1952621,17.8047379 L21.3333333,18.6666667 L18.6666667,17.3333333 L20,20 L19.1380712,20.8619288 L19.1380712,20.8619288 C18.8777217,21.1222783 18.8777217,21.5443883 19.1380712,21.8047379 L22.6666667,25.3333333 L26.6666667,25.3333333 L27.3333333,29.3333333 L28.6666667,29.3333333 L29.3333333,25.3333333 L33.3333333,25.3333333 L36.8619288,21.8047379 L36.8619288,21.8047379 C37.1222783,21.5443883 37.1222783,21.1222783 36.8619288,20.8619288 L36,20 L37.3333333,17.3333333 L34.6666667,18.6666667 L33.8047379,17.8047379 L33.8047379,17.8047379 C33.5443883,17.5443883 33.1222783,17.5443883 32.8619288,17.8047379 L32,18.6666667 L32,18.6666667 C31.7770422,18.8896245 31.4155561,18.8896245 31.1925983,18.6666667 C31.0576196,18.531688 30.9990305,18.3381811 31.0364668,18.1509993 Z" id="Rectangle-66"></path>
                        </g>
                    </g>
                    <rect id="Rectangle-13" fill="#BEC3CC" x="0" y="66" width="48" height="4"></rect>
                </g>
            </g>
        </g>
    </g>
</svg>