<?xml version="1.0" encoding="UTF-8"?>
<svg width="16px" height="16px" viewBox="0 0 16 16" version="1.1" xmlns="http://www.w3.org/2000/svg" xmlns:xlink="http://www.w3.org/1999/xlink">
    <!-- Generator: Sketch 44.1 (41455) - http://www.bohemiancoding.com/sketch -->
    <title>Facebook</title>
    <desc>Created with Sketch.</desc>
    <defs></defs>
    <g id="Page-1" stroke="none" stroke-width="1" fill="none" fill-rule="evenodd">
        <g id="Website-Home" transform="translate(-970.000000, -4204.000000)" fill="#AAACB6">
            <g id="//-FOOTER-//" transform="translate(0.000000, 4122.000000)">
                <g id="Group-9" transform="translate(390.000000, 45.000000)">
                    <g id="Group-8" transform="translate(579.000000, 0.000000)">
                        <g id="Facebook" transform="translate(1.000000, 37.000000)">
                            <path d="M15.1109027,15.9936 L0.882757216,15.9936 C0.395086438,15.9936 0,15.5983952 0,15.110906 L0,0.882693983 C0,0.395084958 0.395086438,0 0.882757216,0 L15.1109027,0 C15.5983937,0 15.9936,0.395084958 15.9936,0.882693983 L15.9936,15.110906 C15.9936,15.5983952 15.5983937,15.9936 15.1109027,15.9936 Z M11.0487821,15.9751 L11.0487821,9.78152708 L13.1276958,9.78152708 L13.4389456,7.36773852 L11.0487821,7.36773852 L11.0487821,5.82664119 C11.0487821,5.12779307 11.2428188,4.65156721 12.2450024,4.65156721 L13.5232,4.65096796 L13.5232,2.49210135 C13.3020173,2.46273799 12.5433684,2.397 11.660675,2.397 C9.81780534,2.397 8.55614704,3.52185663 8.55614704,5.58765934 L8.55614704,7.36773852 L6.4719,7.36773852 L6.4719,9.78152708 L8.55614704,9.78152708 L8.55614704,15.9751 L11.0487821,15.9751 Z" id="Combined-Shape"></path>
                        </g>
                    </g>
                </g>
            </g>
        </g>
    </g>
</svg>