<?xml version="1.0" encoding="UTF-8"?>
<svg width="16px" height="16px" viewBox="0 0 16 16" version="1.1" xmlns="http://www.w3.org/2000/svg" xmlns:xlink="http://www.w3.org/1999/xlink">
    <!-- Generator: Sketch 44.1 (41455) - http://www.bohemiancoding.com/sketch -->
    <title>Group 5</title>
    <desc>Created with Sketch.</desc>
    <defs></defs>
    <g id="Page-1" stroke="none" stroke-width="1" fill="none" fill-rule="evenodd">
        <g id="Website-Home" transform="translate(-1035.000000, -4204.000000)" fill="#A8ABB5">
            <g id="//-FOOTER-//" transform="translate(0.000000, 4122.000000)">
                <g id="Group-9" transform="translate(390.000000, 45.000000)">
                    <g id="Group-8" transform="translate(579.000000, 0.000000)">
                        <g id="Group-5" transform="translate(66.000000, 37.000000)">
                            <path d="M8,1.4435 C10.1354363,1.4435 10.3883579,1.45162701 11.2316625,1.49010334 C12.0114114,1.52569077 12.4348732,1.65597696 12.7167155,1.76546942 C13.0899867,1.91054932 13.3564321,2.08388328 13.6362744,2.36372556 C13.9161167,2.64356785 14.0894507,2.91001326 14.2344988,3.28328446 C14.344023,3.56512675 14.4743092,3.98858861 14.5098967,4.76830572 C14.548373,5.61164212 14.5565,5.86456367 14.5565,8 C14.5565,10.1354363 14.548373,10.3883579 14.5098967,11.2316625 C14.4743092,12.0114114 14.344023,12.4348732 14.2344988,12.7167155 C14.0894507,13.0899867 13.9161167,13.3564321 13.6362744,13.6362744 C13.3564321,13.9161167 13.0899867,14.0894507 12.7167155,14.2344988 C12.4348732,14.344023 12.0114114,14.4743092 11.2316625,14.5098967 C10.3884849,14.548373 10.1355633,14.5565 8,14.5565 C5.86443669,14.5565 5.61151514,14.548373 4.76833747,14.5098967 C3.98858861,14.4743092 3.56512675,14.344023 3.2833162,14.2344988 C2.91001326,14.0894507 2.64356785,13.9161167 2.36372556,13.6362744 C2.08388328,13.3564321 1.91054932,13.0899867 1.76550117,12.7167155 C1.65597696,12.4348732 1.52569077,12.0114114 1.49010334,11.2316943 C1.45162701,10.3883579 1.4435,10.1354363 1.4435,8 C1.4435,5.86456367 1.45162701,5.61164212 1.49010334,4.76833747 C1.52569077,3.98858861 1.65597696,3.56512675 1.76550117,3.28328446 C1.91054932,2.91001326 2.08388328,2.64356785 2.36372556,2.36372556 C2.64356785,2.08388328 2.91001326,1.91054932 3.2833162,1.76546942 C3.56512675,1.65597696 3.98858861,1.52569077 4.76830572,1.49010334 C5.61164212,1.45162701 5.86456367,1.4435 8,1.4435 M7.99998413,0.0025 C5.82797766,0.0025 5.55565939,0.0117063766 4.70264098,0.0506271274 C3.8513686,0.0894843859 3.27003354,0.224659392 2.76130186,0.422374266 C2.23539554,0.626755827 1.78939421,0.900216958 1.34478971,1.34482146 C0.900185212,1.78942595 0.626724081,2.23542728 0.42234252,2.76133361 C0.224627645,3.27006528 0.0894526398,3.85140035 0.0505953813,4.70267272 C0.0116746305,5.55565939 0.0025,5.82800941 0.0025,8.00001587 C0.0025,10.1720223 0.0116746305,10.4443724 0.0505953813,11.297359 C0.0894526398,12.1486314 0.224627645,12.7299665 0.42234252,13.2386981 C0.626724081,13.7645727 0.900185212,14.2106058 1.34478971,14.6552103 C1.78939421,15.0998148 2.23539554,15.3732759 2.76130186,15.5776575 C3.27003354,15.7753724 3.8513686,15.9105474 4.70264098,15.9494046 C5.55565939,15.9883254 5.82797766,15.9975 7.99998413,15.9975 C10.1719906,15.9975 10.4443406,15.9883254 11.2973273,15.9494046 C12.1485997,15.9105474 12.7299347,15.7753724 13.2386664,15.5776575 C13.7645727,15.3732759 14.210574,15.0998148 14.6551785,14.6552103 C15.099783,14.2106058 15.3732442,13.7646045 15.5776257,13.2386981 C15.7753406,12.7299665 15.9105156,12.1486314 15.9493729,11.297359 C15.9882936,10.4443724 15.9975,10.1720223 15.9975,8.00001587 C15.9975,5.82800941 15.9882936,5.55565939 15.9493729,4.70267272 C15.9105156,3.85140035 15.7753406,3.27006528 15.5776257,2.76133361 C15.3732442,2.23542728 15.099783,1.78942595 14.6551785,1.34482146 C14.210574,0.900216958 13.7645727,0.626755827 13.2386664,0.422374266 C12.7299347,0.224659392 12.1485997,0.0894843859 11.2973273,0.0506271274 C10.4443406,0.0117063766 10.1719906,0.0025 7.99998413,0.0025" id="Fill-1"></path>
                            <path d="M8.00005,3.8932 C5.73190943,3.8932 3.8932,5.73190943 3.8932,8.00005 C3.8932,10.2681906 5.73190943,12.1069 8.00005,12.1069 C10.2681906,12.1069 12.1069,10.2681906 12.1069,8.00005 C12.1069,5.73190943 10.2681906,3.8932 8.00005,3.8932 Z M8.00005,10.6659 C6.52775946,10.6659 5.3342,9.47234054 5.3342,8.00005 C5.3342,6.52775946 6.52775946,5.3342 8.00005,5.3342 C9.47234054,5.3342 10.6659,6.52775946 10.6659,8.00005 C10.6659,9.47234054 9.47234054,10.6659 8.00005,10.6659 L8.00005,10.6659 Z" id="Fill-2"></path>
                            <path d="M13.2288,3.73088413 C13.2288,4.26091675 12.7991485,4.6906 12.2691159,4.6906 C11.7390833,4.6906 11.3094,4.26091675 11.3094,3.73088413 C11.3094,3.2008515 11.7390833,2.7712 12.2691159,2.7712 C12.7991485,2.7712 13.2288,3.2008515 13.2288,3.73088413" id="Fill-3"></path>
                        </g>
                    </g>
                </g>
            </g>
        </g>
    </g>
</svg>