<?xml version="1.0" encoding="UTF-8"?>
<svg width="1440px" height="587px" viewBox="0 0 1440 587" version="1.1" xmlns="http://www.w3.org/2000/svg" xmlns:xlink="http://www.w3.org/1999/xlink">
    <!-- Generator: Sketch 44.1 (41455) - http://www.bohemiancoding.com/sketch -->
    <title>Mountains</title>
    <desc>Created with Sketch.</desc>
    <defs>
        <rect id="path-1" x="0" y="0.6015625" width="1440" height="588"></rect>
    </defs>
    <g id="Page-1" stroke="none" stroke-width="1" fill="none" fill-rule="evenodd">
        <g id="Website-–-Privacy-Policy">
            <g id="//-HERO-//" transform="translate(0.000000, -2.000000)">
                <g id="Mountains">
                    <mask id="mask-2" fill="white">
                        <use xlink:href="#path-1"></use>
                    </mask>
                    <use id="Mask" fill-opacity="0.049999997" fill="#83B0FF" xlink:href="#path-1"></use>
                    <g id="2nd-Layer-Color" mask="url(#mask-2)" fill-opacity="0.3">
                        <g transform="translate(-226.000000, 329.000000)">
                            <g transform="translate(0.611962, 0.008863)">
                                <path d="M300.159379,106.402892 C306.699189,103.177684 317.300045,103.176563 323.842126,106.402892 L551.795404,218.821562 C558.335214,222.04677 564.920582,230.421408 566.509708,237.551399 L622.912814,490.617322 C624.49949,497.736317 622.148634,508.177965 617.678226,513.918601 L459.755729,716.713401 C455.278071,722.463348 445.734138,727.1246 438.446963,727.1246 L185.554542,727.1246 C178.263694,727.1246 168.716184,722.454037 164.245776,716.713401 L6.32327892,513.918601 C1.84562045,508.168655 -0.500435192,497.747312 1.08869067,490.617322 L57.4917973,237.551399 C59.0784725,230.432404 65.6640192,222.04789 72.2061009,218.821562 L300.159379,106.402892 Z" id="Polygon-1-Copy" fill="#72C7D6" style="mix-blend-mode: multiply;"></path>
                                <path d="M503.747379,131.223892 C510.287189,127.998684 520.888045,127.997563 527.430126,131.223892 L755.383404,243.642562 C761.923214,246.86777 768.508582,255.242408 770.097708,262.372399 L826.500814,515.438322 C828.08749,522.557317 825.736634,532.998965 821.266226,538.739601 L663.343729,741.534401 C658.866071,747.284348 649.322138,751.9456 642.034963,751.9456 L389.142542,751.9456 C381.851694,751.9456 372.304184,747.275037 367.833776,741.534401 L209.911279,538.739601 C205.43362,532.989655 203.087565,522.568312 204.676691,515.438322 L261.079797,262.372399 C262.666473,255.253404 269.252019,246.86889 275.794101,243.642562 L503.747379,131.223892 Z" id="Polygon-1" fill="#3B64AB" style="mix-blend-mode: multiply;"></path>
                                <path d="M379.438379,3.2782918 C385.978189,0.0530836349 396.579045,0.0519634341 403.121126,3.2782918 L631.074404,115.696962 C637.614214,118.92217 644.199582,127.296808 645.788708,134.426799 L702.191814,387.492722 C703.77849,394.611717 701.427634,405.053365 696.957226,410.794001 L539.034729,613.588801 C534.557071,619.338748 525.013138,624 517.725963,624 L264.833542,624 C257.542694,624 247.995184,619.329437 243.524776,613.588801 L85.6022789,410.794001 C81.1246205,405.044055 78.7785648,394.622712 80.3676907,387.492722 L136.770797,134.426799 C138.357473,127.307804 144.943019,118.92329 151.485101,115.696962 L379.438379,3.2782918 Z" id="Polygon-1" fill="#71A4FF" style="mix-blend-mode: multiply;"></path>
                            </g>
                            <g transform="translate(558.500000, 137.508862)">
                                <path d="M300.159379,46.4028918 C306.699189,43.1776836 317.300045,43.1765634 323.842126,46.4028918 L551.795404,158.821562 C558.335214,162.04677 564.920582,170.421408 566.509708,177.551399 L622.912814,430.617322 C624.49949,437.736317 622.148634,448.177965 617.678226,453.918601 L459.755729,656.713401 C455.278071,662.463348 445.734138,667.1246 438.446963,667.1246 L185.554542,667.1246 C178.263694,667.1246 168.716184,662.454037 164.245776,656.713401 L6.32327892,453.918601 C1.84562045,448.168655 -0.500435192,437.747312 1.08869067,430.617322 L57.4917973,177.551399 C59.0784725,170.432404 65.6640192,162.04789 72.2061009,158.821562 L300.159379,46.4028918 Z" id="Polygon-1-Copy" fill="#72C7D6" style="mix-blend-mode: multiply;"></path>
                                <path d="M368.747379,57.2238918 C375.287189,53.9986836 385.888045,53.9975634 392.430126,57.2238918 L620.383404,169.642562 C626.923214,172.86777 633.508582,181.242408 635.097708,188.372399 L691.500814,441.438322 C693.08749,448.557317 690.736634,458.998965 686.266226,464.739601 L528.343729,667.534401 C523.866071,673.284348 514.322138,677.9456 507.034963,677.9456 L254.142542,677.9456 C246.851694,677.9456 237.304184,673.275037 232.833776,667.534401 L74.9112789,464.739601 C70.4336205,458.989655 68.0875648,448.568312 69.6766907,441.438322 L126.079797,188.372399 C127.666473,181.253404 134.252019,172.86889 140.794101,169.642562 L368.747379,57.2238918 Z" id="Polygon-1" fill="#3B64AB" style="mix-blend-mode: multiply;"></path>
                                <path d="M329.438379,3.2782918 C335.978189,0.0530836349 346.579045,0.0519634341 353.121126,3.2782918 L581.074404,115.696962 C587.614214,118.92217 594.199582,127.296808 595.788708,134.426799 L652.191814,387.492722 C653.77849,394.611717 651.427634,405.053365 646.957226,410.794001 L489.034729,613.588801 C484.557071,619.338748 475.013138,624 467.725963,624 L214.833542,624 C207.542694,624 197.995184,619.329437 193.524776,613.588801 L35.6022789,410.794001 C31.1246205,405.044055 28.7785648,394.622712 30.3676907,387.492722 L86.7707973,134.426799 C88.3574725,127.307804 94.9430192,118.92329 101.485101,115.696962 L329.438379,3.2782918 Z" id="Polygon-1" fill="#71A4FF" style="mix-blend-mode: multiply;"></path>
                            </g>
                            <g transform="translate(1011.666650, 27.540112)">
                                <path d="M470.748573,87.0591303 C477.28775,83.8342342 487.892366,83.8354743 494.429029,87.0591303 L738.515113,207.433942 C745.05429,210.658839 751.639353,219.034159 753.228854,226.165834 L813.614701,497.101266 C815.201699,504.221708 812.859522,514.653722 808.377035,520.409868 L639.299199,737.529699 C634.819519,743.282242 625.284816,747.9456 617.986005,747.9456 L347.191596,747.9456 C339.900325,747.9456 330.360889,743.285845 325.878402,737.529699 L156.800567,520.409868 C152.320886,514.657324 149.973399,504.232941 151.5629,497.101266 L211.948747,226.165834 C213.535745,219.045392 220.125826,210.657598 226.662489,207.433942 L470.748573,87.0591303 Z" id="Polygon-1" fill="#3B64AB" style="mix-blend-mode: multiply;"></path>
                                <path d="M320.748573,87.0591303 C327.28775,83.8342342 337.892366,83.8354743 344.429029,87.0591303 L588.515113,207.433942 C595.05429,210.658839 601.639353,219.034159 603.228854,226.165834 L663.614701,497.101266 C665.201699,504.221708 662.859522,514.653722 658.377035,520.409868 L489.299199,737.529699 C484.819519,743.282242 475.284816,747.9456 467.986005,747.9456 L197.191596,747.9456 C189.900325,747.9456 180.360889,743.285845 175.878402,737.529699 L6.8005666,520.409868 C2.32088568,514.657324 -0.0266009728,504.232941 1.56290036,497.101266 L61.9487471,226.165834 C63.5357449,219.045392 70.1258259,210.657598 76.6624889,207.433942 L320.748573,87.0591303 Z" id="Polygon-1-Copy-2" fill="#72C7D6" style="mix-blend-mode: multiply;"></path>
                                <path d="M422.439573,3.11353032 C428.97875,-0.111365773 439.583366,-0.110125749 446.120029,3.11353032 L690.206113,123.488342 C696.74529,126.713239 703.330353,135.088559 704.919854,142.220234 L765.305701,413.155666 C766.892699,420.276108 764.550522,430.708122 760.068035,436.464268 L590.990199,653.584099 C586.510519,659.336642 576.975816,664 569.677005,664 L298.882596,664 C291.591325,664 282.051889,659.340245 277.569402,653.584099 L108.491567,436.464268 C104.011886,430.711724 101.664399,420.287341 103.2539,413.155666 L163.639747,142.220234 C165.226745,135.099792 171.816826,126.711998 178.353489,123.488342 L422.439573,3.11353032 Z" id="Polygon-1" fill="#71A4FF" style="mix-blend-mode: multiply;"></path>
                            </g>
                        </g>
                    </g>
                </g>
            </g>
        </g>
    </g>
</svg>