<?xml version="1.0" encoding="UTF-8"?>
<svg width="1440px" height="1216px" viewBox="0 0 1440 1216" version="1.1" xmlns="http://www.w3.org/2000/svg" xmlns:xlink="http://www.w3.org/1999/xlink">
    <!-- Generator: Sketch 44.1 (41455) - http://www.bohemiancoding.com/sketch -->
    <title>Group 11</title>
    <desc>Created with Sketch.</desc>
    <defs></defs>
    <g id="Page-1" stroke="none" stroke-width="1" fill="none" fill-rule="evenodd">
        <g id="Website-Home" transform="translate(0.000000, -934.000000)">
            <g id="//-Section-2-//" transform="translate(-21.000000, 933.000000)">
                <g id="Group-11">
                    <g id="3rd-Layer-Shapes" opacity="0.25" transform="translate(0.460941, 741.051566)">
                        <rect id="Rectangle-404" stroke-opacity="0.25" stroke="#263754" stroke-width="3" transform="translate(37.148229, 440.917644) rotate(45.000000) translate(-37.148229, -440.917644) " x="12.6482293" y="416.417644" width="49" height="49" rx="5.69999993"></rect>
                        <path d="M125.886153,125.149829 L102.043663,168.769435 C101.082045,170.528708 101.686488,171.545389 103.696402,171.545389 L150.904454,171.545389 C152.911369,171.545389 153.517568,170.526433 152.557193,168.769435 L128.714703,125.149829 C127.775205,123.431025 126.825573,123.431169 125.886153,125.149829 Z" id="Triangle-24" stroke-opacity="0.25" stroke="#263754" stroke-width="3" transform="translate(127.299769, 147.844360) rotate(-20.000000) translate(-127.299769, -147.844360) "></path>
                        <circle id="Oval-242" stroke-opacity="0.25" stroke="#263754" stroke-width="3" cx="275.365763" cy="27.4697384" r="25.5"></circle>
                        <path d="M170,303.116176 L157.447748,290.563925 C156.887792,290.003968 155.979924,290.003968 155.419967,290.563925 C154.860011,291.123881 154.860011,292.03175 155.419967,292.591706 L167.972219,305.143957 L155.419967,317.696209 C154.860011,318.256165 154.860011,319.164034 155.419967,319.72399 C155.979924,320.283946 156.887792,320.283946 157.447748,319.72399 L170,307.171739 L182.552252,319.72399 C183.112208,320.283946 184.020076,320.283946 184.580033,319.72399 C185.139989,319.164034 185.139989,318.256165 184.580033,317.696209 L172.027781,305.143957 L184.580033,292.591706 C185.139989,292.03175 185.139989,291.123881 184.580033,290.563925 C184.020076,290.003968 183.112208,290.003968 182.552252,290.563925 L170,303.116176 Z" id="X" fill-opacity="0.35" fill="#263754"></path>
                        <path d="M62.9311748,41.9722188 L50.3789233,29.4199672 C49.818967,28.8600109 48.9110984,28.8600109 48.3511421,29.4199672 C47.7911857,29.9799236 47.7911857,30.8877922 48.3511421,31.4477485 L60.9033936,44 L48.3511421,56.5522515 C47.7911857,57.1122078 47.7911857,58.0200764 48.3511421,58.5800327 C48.9110984,59.1399891 49.8189669,59.1399891 50.3789233,58.5800328 L62.9311748,46.0277812 L75.4834263,58.5800328 C76.0433827,59.1399891 76.9512512,59.1399891 77.5112076,58.5800328 C78.0711639,58.0200764 78.0711639,57.1122078 77.5112076,56.5522515 L64.9589561,44 L77.5112076,31.4477485 C78.0711639,30.8877922 78.0711639,29.9799236 77.5112076,29.4199673 C76.9512513,28.8600109 76.0433827,28.8600109 75.4834264,29.4199672 L62.9311748,41.9722188 Z" id="X" fill-opacity="0.35" fill="#263754"></path>
                    </g>
                    <g id="3rd-Layer-Shapes" opacity="0.200000003" transform="translate(1067.000000, 0.512503)">
                        <rect id="Rectangle-404" stroke-opacity="0.25" stroke="#263754" stroke-width="3" transform="translate(270.148229, 150.917644) rotate(45.000000) translate(-270.148229, -150.917644) " x="245.648229" y="126.417644" width="49" height="49" rx="5.69999993"></rect>
                        <path d="M198,308.116176 L185.447748,295.563925 C184.887792,295.003968 183.979924,295.003968 183.419967,295.563925 C182.860011,296.123881 182.860011,297.03175 183.419967,297.591706 L195.972219,310.143957 L183.419967,322.696209 C182.860011,323.256165 182.860011,324.164034 183.419967,324.72399 C183.979924,325.283946 184.887792,325.283946 185.447748,324.72399 L198,312.171739 L210.552252,324.72399 C211.112208,325.283946 212.020076,325.283946 212.580033,324.72399 C213.139989,324.164034 213.139989,323.256165 212.580033,322.696209 L200.027781,310.143957 L212.580033,297.591706 C213.139989,297.03175 213.139989,296.123881 212.580033,295.563925 C212.020076,295.003968 211.112208,295.003968 210.552252,295.563925 L198,308.116176 Z" id="X" fill-opacity="0.35" fill="#263754" transform="translate(198.000000, 310.143957) rotate(-20.000000) translate(-198.000000, -310.143957) "></path>
                        <path d="M385.931175,295.972219 L373.378923,283.419967 C372.818967,282.860011 371.911098,282.860011 371.351142,283.419967 C370.791186,283.979924 370.791186,284.887792 371.351142,285.447748 L383.903394,298 L371.351142,310.552251 C370.791186,311.112208 370.791186,312.020076 371.351142,312.580033 C371.911098,313.139989 372.818967,313.139989 373.378923,312.580033 L385.931175,300.027781 L398.483426,312.580033 C399.043383,313.139989 399.951251,313.139989 400.511208,312.580033 C401.071164,312.020076 401.071164,311.112208 400.511208,310.552252 L387.958956,298 L400.511208,285.447749 C401.071164,284.887792 401.071164,283.979924 400.511208,283.419967 C399.951251,282.860011 399.043383,282.860011 398.483426,283.419967 L385.931175,295.972219 Z" id="X" fill-opacity="0.35" fill="#263754"></path>
                        <path d="M14.228934,485.245715 L30.0544719,476.514104 L45.8800098,485.245715 C47.1954019,485.971472 47.4818017,485.76837 47.2377001,484.274734 L44.203749,465.710258 L56.9898225,452.630289 C58.0655126,451.529873 57.9103142,451.063639 56.3925571,450.832185 L38.7727349,448.145203 L30.8214809,431.237105 C30.1885092,429.89111 29.9204369,429.891105 29.2874629,431.237105 L21.3362089,448.145203 L3.71638674,450.832185 C2.19440771,451.064283 2.04046887,451.526843 3.11912135,452.630289 L15.9051948,465.710258 L12.8712437,484.274734 C12.6264685,485.772492 12.9103018,485.97326 14.228934,485.245715 Z" id="Star" stroke-opacity="0.25" stroke="#263754" stroke-width="3"></path>
                        <path d="M307,409.219548 L282.519238,423.353522 L282.519238,451.621471 L307,465.755446 L331.480762,451.621471 L331.480762,423.353522 L307,409.219548 Z" id="Polygon" stroke-opacity="0.25" stroke="#263754" stroke-width="3"></path>
                        <path d="M384.269704,17.4367834 L371.717452,4.88453184 C371.157496,4.32457552 370.249627,4.32457552 369.689671,4.88453184 C369.129714,5.44448817 369.129714,6.35235676 369.689671,6.91231309 L382.241922,19.4645646 L369.689671,32.0168161 C369.129714,32.5767724 369.129714,33.484641 369.689671,34.0445973 C370.249627,34.6045537 371.157496,34.6045537 371.717452,34.0445974 L384.269704,21.4923458 L396.821955,34.0445974 C397.381911,34.6045537 398.28978,34.6045537 398.849736,34.0445974 C399.409693,33.484641 399.409693,32.5767724 398.849736,32.0168161 L386.297485,19.4645646 L398.849736,6.91231312 C399.409693,6.35235679 399.409693,5.4444882 398.849736,4.88453186 C398.28978,4.32457552 397.381911,4.32457551 396.821955,4.88453184 L384.269704,17.4367834 Z" id="X" fill-opacity="0.35" fill="#263754" transform="translate(384.269704, 19.464565) rotate(110.000000) translate(-384.269704, -19.464565) "></path>
                    </g>
                    <g id="Group-10" opacity="0.150000006" transform="translate(248.000000, 408.000000)" stroke="#83B0FF" stroke-width="3">
                        <circle id="Oval-242" cx="27.8267043" cy="360.521304" r="25.5"></circle>
                        <path d="M833.228934,77.7582184 L849.054472,69.026607 L864.88001,77.7582184 C866.195402,78.4839753 866.481802,78.280873 866.2377,76.7872375 L863.203749,58.2227612 L875.989822,45.1427917 C877.065513,44.0423762 876.910314,43.5761424 875.392557,43.344688 L857.772735,40.6577057 L849.821481,23.7496081 C849.188509,22.4036131 848.920437,22.4036084 848.287463,23.7496081 L840.336209,40.6577057 L822.716387,43.344688 C821.194408,43.5767863 821.040469,44.0393457 822.119121,45.1427917 L834.905195,58.2227612 L831.871244,76.7872375 C831.626469,78.2849947 831.910302,78.485763 833.228934,77.7582184 Z" id="Star"></path>
                        <rect id="Rectangle-404" transform="translate(429.148229, 253.430148) rotate(105.000000) translate(-429.148229, -253.430148) " x="404.648229" y="228.930148" width="49" height="49" rx="5.69999993"></rect>
                        <path d="M818.347094,258.201395 L794.504605,301.821001 C793.542986,303.580273 794.147429,304.596955 796.157344,304.596955 L843.365395,304.596955 C845.372311,304.596955 845.97851,303.577999 845.018134,301.821001 L821.175644,258.201395 C820.236146,256.482591 819.286514,256.482735 818.347094,258.201395 Z" id="Triangle-24" transform="translate(819.760711, 280.895925) rotate(-50.000000) translate(-819.760711, -280.895925) "></path>
                        <path d="M1126,1.73205081 L1101.51924,15.8660254 L1101.51924,44.1339746 L1126,58.2679492 L1150.48076,44.1339746 L1150.48076,15.8660254 L1126,1.73205081 Z" id="Polygon"></path>
                        <path d="M228.730645,277.609669 L242.343557,263.996758 C242.317726,264.022588 242.275848,264.022588 242.250017,263.996758 C242.224187,263.970928 242.224187,263.929049 242.250017,263.903219 L228.637106,277.51613 L242.250017,291.129042 C242.224187,291.103212 242.224187,291.061333 242.250017,291.035503 C242.275848,291.009673 242.317726,291.009673 242.343557,291.035503 L228.730645,277.422591 L215.117733,291.035503 C215.143563,291.009673 215.185442,291.009673 215.211272,291.035503 C215.237102,291.061333 215.237102,291.103212 215.211272,291.129042 L228.824184,277.51613 L215.211272,263.903219 C215.237102,263.929049 215.237102,263.970928 215.211272,263.996758 C215.185442,264.022588 215.143563,264.022588 215.117733,263.996758 L228.730645,277.609669 Z" id="X" transform="translate(228.730645, 277.516130) rotate(120.000000) translate(-228.730645, -277.516130) "></path>
                        <path d="M652.250017,283.903219 L638.637106,297.51613 L652.250017,311.129042 C652.224187,311.103212 652.224187,311.061333 652.250017,311.035503 C652.275848,311.009673 652.317726,311.009673 652.343557,311.035503 L638.730645,297.422591 L625.117733,311.035503 C625.143563,311.009673 625.185442,311.009673 625.211272,311.035503 C625.237102,311.061333 625.237102,311.103212 625.211272,311.129042 L638.824184,297.51613 L625.211272,283.903219 C625.237102,283.929049 625.237102,283.970928 625.211272,283.996758 C625.185442,284.022588 625.143563,284.022588 625.117733,283.996758 L638.730645,297.609669 L652.343557,283.996758 C652.317726,284.022588 652.275848,284.022588 652.250017,283.996758 C652.224187,283.970928 652.224187,283.929049 652.250017,283.903219 Z" id="X" transform="translate(638.730645, 297.516130) rotate(90.000000) translate(-638.730645, -297.516130) "></path>
                        <path d="M478.730645,87.4225912 L478.637106,87.5161303 L492.250017,101.129042 C492.224187,101.103212 492.224187,101.061333 492.250017,101.035503 C492.275848,101.009673 492.317726,101.009673 492.343557,101.035503 L478.730645,87.4225912 L465.117733,101.035503 C465.143563,101.009673 465.185442,101.009673 465.211272,101.035503 C465.237102,101.061333 465.237102,101.103212 465.211272,101.129042 L478.824184,87.5161303 L478.730645,87.4225912 Z M478.730645,87.4225912 L465.211272,73.9032186 C465.237102,73.9290487 465.237102,73.9709276 465.211272,73.9967577 C465.185442,74.0225878 465.143563,74.0225878 465.117733,73.9967577 L478.730645,87.6096694 L492.343557,73.9967577 C492.317726,74.0225878 492.275848,74.0225878 492.250017,73.9967577 C492.224187,73.9709276 492.224187,73.9290488 492.250017,73.9032187 L478.730645,87.4225912 Z" id="X" transform="translate(478.730645, 87.516130) rotate(60.000000) translate(-478.730645, -87.516130) "></path>
                    </g>
                </g>
            </g>
        </g>
    </g>
</svg>