<?xml version="1.0" encoding="UTF-8"?>
<svg width="76px" height="73px" viewBox="0 0 76 73" version="1.1" xmlns="http://www.w3.org/2000/svg" xmlns:xlink="http://www.w3.org/1999/xlink">
    <!-- Generator: Sketch 44.1 (41455) - http://www.bohemiancoding.com/sketch -->
    <title>Press</title>
    <desc>Created with Sketch.</desc>
    <defs></defs>
    <g id="Page-1" stroke="none" stroke-width="1" fill="none" fill-rule="evenodd" stroke-linecap="round" stroke-linejoin="round">
        <g id="Website-–-About" transform="translate(-294.000000, -2646.000000)" stroke="#FADF6F" stroke-width="2">
            <g id="//-AROUND-//" transform="translate(250.000000, 2403.000000)">
                <g id="Press" transform="translate(45.750000, 244.750000)">
                    <polygon id="Path-62" points="27.5863223 27.2537948 36.4929023 0 44.9939129 27.2681537 73 27.2681537 50.7858102 43.0175113 59.0847954 70 36.3660669 53.4253881 13.9761991 69.7226481 22.434678 43.3371839 -2.84e-14 27.2681537"></polygon>
                    <path d="M51.469598,18.381577 L57.1240527,12.7223243" id="Line"></path>
                    <path d="M16.418155,18.381577 L22.0726097,12.7223243" id="Line-Copy-17" transform="translate(19.245382, 15.551951) scale(-1, 1) translate(-19.245382, -15.551951) "></path>
                    <path d="M6.00497766,48.9374389 L13.147068,45.3331989" id="Line-Copy-19" transform="translate(9.576023, 47.135319) scale(-1, -1) translate(-9.576023, -47.135319) "></path>
                    <path d="M36,69.1432325 L36,61.1432325" id="Line-Copy-21" transform="translate(36.000000, 65.143233) scale(-1, -1) translate(-36.000000, -65.143233) "></path>
                    <path d="M61.1519976,48.9374389 L68.2940879,45.3331989" id="Line-Copy-20" transform="translate(64.723043, 47.135319) scale(1, -1) translate(-64.723043, -47.135319) "></path>
                </g>
            </g>
        </g>
    </g>
</svg>