<?xml version="1.0" encoding="UTF-8"?>
<svg width="1440px" height="587px" viewBox="0 0 1440 587" version="1.1" xmlns="http://www.w3.org/2000/svg" xmlns:xlink="http://www.w3.org/1999/xlink">
    <!-- Generator: Sketch 44.1 (41455) - http://www.bohemiancoding.com/sketch -->
    <title>Rainbow</title>
    <desc>Created with Sketch.</desc>
    <defs>
        <rect id="path-1" x="0" y="0.6015625" width="1440" height="588"></rect>
    </defs>
    <g id="Page-1" stroke="none" stroke-width="1" fill="none" fill-rule="evenodd">
        <g id="Website-–-About">
            <g id="//-HERO-//" transform="translate(0.000000, -2.000000)">
                <g id="Rainbow">
                    <mask id="mask-2" fill="white">
                        <use xlink:href="#path-1"></use>
                    </mask>
                    <use id="Mask" fill-opacity="0.049999997" fill="#83B0FF" xlink:href="#path-1"></use>
                    <g id="2nd-Layer-Color" mask="url(#mask-2)" fill-opacity="0.3">
                        <g transform="translate(-483.000000, -45.000000)">
                            <g transform="translate(725.410978, 729.572833) rotate(-40.000000) translate(-725.410978, -729.572833) translate(225.910978, 197.072833)">
                                <polygon id="Polygon-1-Copy" fill="#72C7D6" style="mix-blend-mode: multiply;" transform="translate(427.032393, 544.338574) rotate(-30.000000) translate(-427.032393, -544.338574) " points="427.032393 232.338574 511.208986 243.908381 589.142586 277.75972 655.053214 331.381994 704.052581 400.798283 732.506629 480.860298 738.305049 565.630207 721.017801 648.821013 681.927 724.262835 623.931832 786.360497 551.333533 830.508501 469.516388 853.43259 384.548399 853.43259 302.731253 830.508501 230.132955 786.360497 172.137787 724.262835 133.046986 648.821013 115.759737 565.630207 121.558158 480.860298 150.012205 400.798283 199.011572 331.381994 264.922201 277.75972 342.855801 243.908381"></polygon>
                                <polygon id="Polygon-1" fill="#FADF6F" style="mix-blend-mode: multiply;" transform="translate(572.769508, 638.103574) rotate(-30.000000) translate(-572.769508, -638.103574) " points="572.769508 326.103574 656.946101 337.673381 734.879701 371.52472 800.790329 425.146994 849.789697 494.563283 878.243744 574.625298 884.042164 659.395207 866.754916 742.586013 827.664115 818.027835 769.668947 880.125497 697.070648 924.2735 615.253503 947.19759 530.285514 947.19759 448.468368 924.2735 375.87007 880.125497 317.874902 818.027835 278.784101 742.586013 261.496852 659.395207 267.295273 574.625298 295.74932 494.563283 344.748688 425.146994 410.659316 371.52472 488.592916 337.673381"></polygon>
                                <polygon id="Polygon-1" fill="#EB5B53" style="mix-blend-mode: multiply;" transform="translate(426.976778, 426.860620) rotate(-30.000000) translate(-426.976778, -426.860620) " points="426.976778 114.86062 511.15337 126.430426 589.08697 160.281765 654.997599 213.904039 703.996966 283.320328 732.451013 363.382343 738.249434 448.152252 720.962186 531.343059 681.871384 606.78488 623.876216 668.882542 551.277918 713.030546 469.460772 735.954635 384.492783 735.954635 302.675638 713.030546 230.077339 668.882542 172.082171 606.78488 132.99137 531.343059 115.704122 448.152252 121.502542 363.382343 149.95659 283.320328 198.955957 213.904039 264.866585 160.281765 342.800185 126.430426"></polygon>
                            </g>
                            <g transform="translate(1206.002232, 849.641548) rotate(-30.000000) translate(-1206.002232, -849.641548) translate(735.502232, 392.641548)">
                                <polygon id="Polygon-1-Copy" fill="#72C7D6" style="mix-blend-mode: multiply;" transform="translate(514.602540, 426.842568) rotate(-30.000000) translate(-514.602540, -426.842568) " points="514.60254 114.842568 598.779133 126.412374 676.712733 160.263713 742.623361 213.885987 791.622729 283.302276 820.076776 363.364292 825.875196 448.134201 808.587948 531.325007 769.497147 606.766828 711.501979 668.86449 638.90368 713.012494 557.086535 735.936583 472.118546 735.936583 390.3014 713.012494 317.703102 668.86449 259.707934 606.766828 220.617133 531.325007 203.329884 448.134201 209.128305 363.364292 237.582352 283.302276 286.58172 213.885987 352.492348 160.263713 430.425948 126.412374"></polygon>
                                <polygon id="Polygon-1" fill="#FADF6F" style="mix-blend-mode: multiply;" transform="translate(508.549524, 486.945600) rotate(-30.000000) translate(-508.549524, -486.945600) " points="508.549524 174.9456 592.726117 186.515406 670.659717 220.366746 736.570345 273.989019 785.569712 343.405308 814.02376 423.467324 819.82218 508.237233 802.534932 591.428039 763.444131 666.86986 705.448963 728.967523 632.850664 773.115526 551.033519 796.039615 466.06553 796.039615 384.248384 773.115526 311.650086 728.967523 253.654918 666.86986 214.564117 591.428039 197.276868 508.237233 203.075289 423.467324 231.529336 343.405308 280.528703 273.989019 346.439332 220.366746 424.372932 186.515406"></polygon>
                                <polygon id="Polygon-1" fill="#EB5B53" style="mix-blend-mode: multiply;" transform="translate(427.197584, 431.820508) rotate(-30.000000) translate(-427.197584, -431.820508) " points="427.197584 119.820508 511.374177 131.390314 589.307777 165.241654 655.218405 218.863927 704.217772 288.280216 732.67182 368.342232 738.47024 453.112141 721.182992 536.302947 682.092191 611.744769 624.097023 673.842431 551.498724 717.990434 469.681579 740.914523 384.71359 740.914523 302.896444 717.990434 230.298146 673.842431 172.302978 611.744769 133.212177 536.302947 115.924928 453.112141 121.723349 368.342232 150.177396 288.280216 199.176763 218.863927 265.087392 165.241654 343.020992 131.390314"></polygon>
                            </g>
                            <g transform="translate(1692.918984, 766.935715) rotate(10.000000) translate(-1692.918984, -766.935715) translate(1100.918984, 240.935715)">
                                <polygon id="Polygon-1" fill="#3B64AB" style="mix-blend-mode: multiply;" transform="translate(730.471382, 453.721443) rotate(-30.000000) translate(-730.471382, -453.721443) " points="730.471382 121.721443 820.04391 134.032904 902.973253 170.054201 973.108922 227.113799 1025.24927 300.97985 1055.5273 386.174047 1061.69741 476.377924 1043.30201 564.901474 1001.70539 645.17931 939.992579 711.257592 862.740543 758.235595 775.678709 782.629177 685.264054 782.629177 598.20222 758.235595 520.950184 711.257592 459.237377 645.17931 417.640755 564.901474 399.24535 476.377924 405.415465 386.174047 435.693489 300.97985 487.833841 227.113799 557.96951 170.054201 640.898854 134.032904"></polygon>
                                <polygon id="Polygon-1-Copy-2" fill="#FADF6F" style="mix-blend-mode: multiply;" transform="translate(453.588000, 597.945600) rotate(-30.000000) translate(-453.588000, -597.945600) " points="453.588 265.9456 543.160528 278.257061 626.089871 314.278358 696.22554 371.337956 748.365893 445.204007 778.643917 530.398204 784.814031 620.602081 766.418626 709.125631 724.822004 789.403467 663.109198 855.481749 585.857162 902.459752 498.795327 926.853334 408.380673 926.853334 321.318838 902.459752 244.066802 855.481749 182.353996 789.403467 140.757374 709.125631 122.361969 620.602081 128.532083 530.398204 158.810107 445.204007 210.95046 371.337956 281.086129 314.278358 364.015472 278.257061"></polygon>
                                <polygon id="Polygon-1" fill="#EB5B53" style="mix-blend-mode: multiply;" transform="translate(557.015482, 523.848078) rotate(-30.000000) translate(-557.015482, -523.848078) " points="557.015482 191.848078 646.58801 204.159538 729.517353 240.180835 799.653022 297.240434 851.793374 371.106485 882.071399 456.300681 888.241513 546.504559 869.846108 635.028109 828.249486 715.305944 766.536679 781.384226 689.284644 828.36223 602.222809 852.755812 511.808154 852.755812 424.74632 828.36223 347.494284 781.384226 285.781477 715.305944 244.184856 635.028109 225.78945 546.504559 231.959565 456.300681 262.237589 371.106485 314.377942 297.240434 384.51361 240.180835 467.442954 204.159538"></polygon>
                            </g>
                        </g>
                    </g>
                </g>
            </g>
        </g>
    </g>
</svg>