<?xml version="1.0" encoding="UTF-8"?>
<svg width="19px" height="16px" viewBox="0 0 19 16" version="1.1" xmlns="http://www.w3.org/2000/svg" xmlns:xlink="http://www.w3.org/1999/xlink">
    <!-- Generator: Sketch 44.1 (41455) - http://www.bohemiancoding.com/sketch -->
    <title>Twitter</title>
    <desc>Created with Sketch.</desc>
    <defs></defs>
    <g id="Page-1" stroke="none" stroke-width="1" fill="none" fill-rule="evenodd">
        <g id="Website-Home" transform="translate(-1001.000000, -4204.000000)" fill="#AAACB6">
            <g id="//-FOOTER-//" transform="translate(0.000000, 4122.000000)">
                <g id="Group-9" transform="translate(390.000000, 45.000000)">
                    <g id="Group-8" transform="translate(579.000000, 0.000000)">
                        <g id="Twitter" transform="translate(32.000000, 37.000000)">
                            <g id="Logo_FIXED">
                                <path d="M5.82149652,15.5814 C12.8069962,15.5814 16.6277698,9.73305004 16.6277698,4.66138729 C16.6277698,4.495275 16.6277698,4.32991096 16.6166629,4.16529517 C17.3599598,3.62199637 18.0015863,2.94929286 18.5115,2.17868192 C17.8183399,2.48905883 17.0830262,2.69260391 16.3301048,2.78252256 C17.1229479,2.30287859 17.7163374,1.5484818 17.9998421,0.659727158 C17.2543155,1.10677524 16.4386904,1.42183242 15.5881639,1.59130286 C14.4108938,0.326301083 12.5402228,0.0166874502 11.0251157,0.836075508 C9.51000856,1.65546356 8.72726518,3.40007549 9.11580306,5.0916331 C6.06206882,4.93693132 3.21691054,3.47938853 1.2884004,1.08174218 C0.280355006,2.83538273 0.795245068,5.07880764 2.46425088,6.20503442 C1.85984389,6.18693233 1.26861484,6.02217111 0.74046,5.72465562 L0.74046,5.77329211 C0.740954726,7.60022278 2.01534811,9.1737568 3.7874529,9.53551109 C3.22830904,9.68960647 2.64165072,9.71213208 2.07254754,9.60135741 C2.5700981,11.1647755 3.9959476,12.2357965 5.62083186,12.2666367 C4.27596031,13.3347177 2.61460833,13.9145363 0.90410166,13.9127945 C0.601922577,13.9122083 0.300037402,13.8937197 0,13.8574238 C1.7368496,14.9837523 3.75777038,15.5811882 5.82149652,15.578407" id="Shape"></path>
                            </g>
                        </g>
                    </g>
                </g>
            </g>
        </g>
    </g>
</svg>