<?xml version="1.0" encoding="UTF-8"?>
<svg width="48px" height="69px" viewBox="0 0 48 69" version="1.1" xmlns="http://www.w3.org/2000/svg" xmlns:xlink="http://www.w3.org/1999/xlink">
    <!-- Generator: Sketch 46.2 (44496) - http://www.bohemiancoding.com/sketch -->
    <title>GB</title>
    <desc>Created with Sketch.</desc>
    <defs>
        <rect id="path-1" x="3" y="0" width="42" height="42" rx="21"></rect>
    </defs>
    <g id="Current" stroke="none" stroke-width="1" fill="none" fill-rule="evenodd">
        <g id="Website-Home" transform="translate(-1055.000000, -3808.000000)">
            <g id="Group-13" transform="translate(264.000000, 3807.000000)">
                <g id="GB" transform="translate(791.000000, 1.000000)">
                    <mask id="mask-2" fill="white">
                        <use xlink:href="#path-1"></use>
                    </mask>
                    <use id="Mask" fill="#FFFFFF" xlink:href="#path-1"></use>
                    <g id="Group-14" mask="url(#mask-2)">
                        <g transform="translate(-14.000000, -4.000000)">
                            <rect id="Mask-Copy" stroke="none" fill="#0A17A7" fill-rule="evenodd" x="8.45070423" y="4.24489796" width="59.1549296" height="42.4489796"></rect>
                            <path d="M22.4785586,32.5442177 L8.45070423,32.5442177 L8.45070423,18.3945578 L22.4785586,18.3945578 L2.5835931,4.97523417 L5.74854886,0.2829943 L30.9859155,17.305813 L30.9859155,1.41496599 L45.0704225,1.41496599 L45.0704225,17.305813 L70.3077892,0.2829943 L73.4727449,4.97523417 L53.5777794,18.3945578 L67.6056338,18.3945578 L67.6056338,32.5442177 L53.5777794,32.5442177 L73.4727449,45.9635413 L70.3077892,50.6557812 L45.0704225,33.6329625 L45.0704225,49.5238095 L30.9859155,49.5238095 L30.9859155,33.6329625 L5.74854886,50.6557812 L2.5835931,45.9635413 L22.4785586,32.5442177 Z" id="Rectangle-2" stroke="none" fill="#FFFFFF" fill-rule="evenodd"></path>
                            <path d="M47.8900748,17.6846567 L74.6478873,0" id="Line" stroke="#DB1F35" stroke-width="1.40053327" fill="none" stroke-linecap="round"></path>
                            <path d="M50.7312184,49.5599091 L74.7182067,33.3171636" id="Line-Copy-2" stroke="#DB1F35" stroke-width="1.40053327" fill="none" stroke-linecap="round" transform="translate(62.724713, 41.438536) scale(1, -1) translate(-62.724713, -41.438536) "></path>
                            <path d="M25.3638039,17.638539 L0.343344245,0.69832855" id="Line-Copy" stroke="#DB1F35" stroke-width="1.40053327" fill="none" stroke-linecap="round"></path>
                            <path d="M28.0775473,51.5977227 L0.343344245,33.1206021" id="Line-Copy-3" stroke="#DB1F35" stroke-width="1.40053327" fill="none" stroke-linecap="round" transform="translate(14.210446, 42.359162) scale(1, -1) translate(-14.210446, -42.359162) "></path>
                            <polygon id="Rectangle-2-Copy-3" stroke="none" fill="#E6273E" fill-rule="evenodd" points="8.45070423 29.7142857 33.8028169 29.7142857 33.8028169 46.6938776 42.2535211 46.6938776 42.2535211 29.7142857 67.6056338 29.7142857 67.6056338 21.2244898 42.2535211 21.2244898 42.2535211 4.24489796 33.8028169 4.24489796 33.8028169 21.2244898 8.45070423 21.2244898"></polygon>
                        </g>
                    </g>
                    <rect id="Rectangle-13" fill="#BEC3CC" x="0" y="65" width="48" height="4"></rect>
                </g>
            </g>
        </g>
    </g>
</svg>